# xmcd CD database file
#
# Track frame offsets:
#	150
#	25657
#	43050
#	63342
#	87070
#	97917
#	121502
#	149290
#	164765
#	196142
#	226375
#	232632
#	263615
#
# Disc length: 3810 seconds
#
# Revision: 0
# Processed by: cddbd v1.5.1PL0 Copyright (c) Steve Scherf et al.
# Submitted via: CDex 1.50
#
DISCID=960ee00d
DTITLE=Willie Murphy - Piano Hits
DYEAR=1993
DGENRE=Jazz
TTITLE0=Pocket full of Money
TTITLE1=How do you feel
TTITLE2=Kind hearted Woman
TTITLE3=Danger Zone
TTITLE4=Dizzy Miss Lizzy
TTITLE5=Drive me Home
TTITLE6=Dont let the sun catch you crying
TTITLE7=Riding in the Moonlight
TTITLE8=Slow long Blues
TTITLE9=Sweet blonde Call
TTITLE10=Pine Tops Boogie
TTITLE11=Ramblin on my Mind
TTITLE12=Fairy Tale
EXTD=YEAR: 1993
EXTT0=
EXTT1=
EXTT2=
EXTT3=
EXTT4=
EXTT5=
EXTT6=
EXTT7=
EXTT8=
EXTT9=
EXTT10=
EXTT11=
EXTT12=
PLAYORDER=
